<svg width="48" height="48" viewBox="0 0 48 48" fill="none" xmlns="http://www.w3.org/2000/svg">
<path d="M10.1538 4C6.77644 4 4 6.77644 4 10.1538C4 11.8245 4.75721 13.2909 5.69471 14.7212C6.63221 16.1514 7.8101 17.5697 8.95192 19C11.2356 21.8606 13.2308 24.7692 13.2308 27.0769C13.2308 27.9423 12.5577 28.6154 11.6923 28.6154H10.1538V31.6923H11.6923C13.2909 31.6923 14.7212 30.851 15.5385 29.601C15.5745 29.6851 15.5865 29.7933 15.6106 29.8654C16.4399 32.3293 17.4736 34.2644 18.8798 35.6707C19.8894 36.6803 21.1274 37.3654 22.4615 37.6659V40.9231H16.3077V44H31.6923V40.9231H25.5385V37.6659C26.8726 37.3654 28.1106 36.6803 29.1202 35.6707C30.5264 34.2644 31.5601 32.3293 32.3774 29.8654C32.4135 29.7933 32.4255 29.6851 32.4615 29.601C33.2788 30.851 34.7091 31.6923 36.3077 31.6923H37.8462V28.6154H36.3077C35.4423 28.6154 34.7692 27.9423 34.7692 27.0769C34.7692 24.7692 36.7644 21.8606 39.0481 19C40.1899 17.5697 41.3678 16.1514 42.3053 14.7212C43.2428 13.2909 44 11.8245 44 10.1538C44 6.77644 41.2236 4 37.8462 4C35.5865 4 33.6274 5.25 32.5577 7.07692H15.4423C14.3726 5.25 12.4135 4 10.1538 4ZM10.1538 7.07692C11.8726 7.07692 13.2308 8.4351 13.2308 10.1538H13.2668C13.3029 13.9159 13.4591 17.3173 13.7596 20.3101C13.0024 19.1923 12.1731 18.0986 11.3558 17.0769C10.1899 15.6226 9.0601 14.2524 8.26683 13.0385C7.47356 11.8245 7.07692 10.7909 7.07692 10.1538C7.07692 8.4351 8.4351 7.07692 10.1538 7.07692ZM37.8462 7.07692C39.5649 7.07692 40.9231 8.4351 40.9231 10.1538C40.9231 10.7909 40.5264 11.8245 39.7332 13.0385C38.9399 14.2524 37.8101 15.6226 36.6442 17.0769C35.8269 18.0986 34.9976 19.1923 34.2404 20.3101C34.5409 17.3173 34.6971 13.9159 34.7332 10.1538H34.7692C34.7692 8.4351 36.1274 7.07692 37.8462 7.07692ZM16.476 10.1538H31.524C31.4159 18.2788 30.7909 24.9014 29.4567 28.9038C28.7476 31.0553 27.8582 32.5817 26.9567 33.4832C26.0433 34.3966 25.1538 34.7692 24 34.7692C22.8462 34.7692 21.9567 34.3966 21.0433 33.4832C20.1418 32.5817 19.2524 31.0553 18.5433 28.9038C17.2091 24.9014 16.5841 18.2788 16.476 10.1538ZM22.4615 13.2308V25.5385H25.5385V13.2308H22.4615Z" fill="#333333"/>
</svg>
