<svg width="48" height="48" viewBox="0 0 48 48" fill="none" xmlns="http://www.w3.org/2000/svg">
<path fill-rule="evenodd" clip-rule="evenodd" d="M22.6493 43.446L16.6035 37.411C15.8615 36.6704 15.8615 35.4695 16.6035 34.7288C17.3455 33.9881 18.5485 33.9881 19.2905 34.7288L22.1 37.5331V22.0179C22.1 20.9704 22.9507 20.1212 24 20.1212C25.0493 20.1212 25.9 20.9704 25.9 22.0179V37.5521L28.7293 34.7288C29.4713 33.9881 30.6743 33.9881 31.4163 34.7288C32.1583 35.4695 32.1583 36.6704 31.4163 37.411L25.3705 43.446C25.019 43.7969 24.5641 43.9815 24.1038 44H23.916C23.4557 43.9815 23.0007 43.7969 22.6493 43.446ZM29.6436 4C35.1875 4 39.7312 8.27479 40.1472 13.7024L40.1645 13.9748L40.1754 14.3028L40.2559 14.3825C41.8504 16.0039 42.8304 18.1508 42.98 20.4662L42.9952 20.783L43 21.0883C43 26.2894 38.8466 30.5221 33.67 30.6618L30.6506 30.6645C29.6489 30.6649 28.8281 29.8914 28.7553 28.9101L28.75 28.7679V28.4346C28.75 27.3882 29.599 26.5395 30.6473 26.538L33.4059 26.5341C36.3488 26.5341 38.7475 24.208 38.8574 21.2972L38.8614 21.0883C38.8614 19.4874 38.1673 18.0043 36.9856 16.9789L36.795 16.8208L36.3489 16.4674C36.0873 16.2602 35.9463 15.936 35.9731 15.6032L36.0187 15.0372C36.0326 14.8646 36.0396 14.6908 36.0396 14.5159C36.0396 10.9898 33.176 8.13125 29.6436 8.13125C27.8715 8.13125 26.2206 8.85217 25.024 10.1004L24.8389 10.3018L24.2787 10.9379C23.9721 11.286 23.4664 11.3776 23.0572 11.159L22.3087 10.7593C21.3906 10.269 20.3649 10.0091 19.297 10.0091C15.7646 10.0091 12.901 12.8676 12.901 16.3937C12.901 16.6034 12.911 16.8115 12.931 17.0172L12.9682 17.324L13.0972 18.2052C13.1674 18.6844 12.884 19.145 12.4246 19.2985L11.5774 19.5815C10.1329 20.064 9.13861 21.4202 9.13861 22.9662C9.13861 24.8751 10.6404 26.4339 12.5289 26.5294L12.7129 26.5341L17.35 26.5338C18.3516 26.5334 19.1723 27.3071 19.2449 28.2884L19.2497 28.4303L19.2497 28.7295C19.2496 29.7758 18.4006 30.6243 17.3524 30.6258L14.6339 30.6342C14.0745 30.6388 13.6081 30.6449 13.26 30.653L12.9758 30.6609L12.7129 30.6653C8.45317 30.6653 5 27.2183 5 22.9662C5 20.3389 6.33025 17.9666 8.41974 16.5682L8.64649 16.4222L8.76238 16.3524L8.76582 16.1223C8.90542 10.6219 13.2762 6.17102 18.7505 5.89175L19.0251 5.88127L19.297 5.87784C20.2832 5.87784 21.2512 6.01378 22.1791 6.27673L22.5743 6.39718L22.8384 6.48814L22.8744 6.45779C24.5779 5.02972 26.7039 4.16386 28.9741 4.02102L29.3157 4.00503L29.6436 4Z" fill="#333333"/>
</svg>
