<svg width="48" height="48" viewBox="0 0 48 48" fill="none" xmlns="http://www.w3.org/2000/svg">
<path fill-rule="evenodd" clip-rule="evenodd" d="M25 33C26.6569 33 28 34.3431 28 36C28 37.6569 26.6569 39 25 39H7C5.34315 39 4 37.6569 4 36C4 34.3431 5.34315 33 7 33H25ZM41 21C42.6569 21 44 22.3431 44 24C44 25.6569 42.6569 27 41 27H7C5.34315 27 4 25.6569 4 24C4 22.3431 5.34315 21 7 21H41ZM33 9C34.6569 9 36 10.3431 36 12C36 13.6569 34.6569 15 33 15H7C5.34315 15 4 13.6569 4 12C4 10.3431 5.34315 9 7 9H33Z" fill="#333333"/>
</svg>
