<svg width="48" height="48" viewBox="0 0 48 48" fill="none" xmlns="http://www.w3.org/2000/svg">
<path fill-rule="evenodd" clip-rule="evenodd" d="M24 24C37.0442 24 43.3418 30.2966 41.7609 42.0734C41.6129 43.1765 40.6713 44 39.5581 44H8.44189C7.32865 44 6.38713 43.1765 6.23905 42.0734C4.65823 30.2966 10.9558 24 24 24ZM24 28.4444C14.2988 28.4444 10.0857 31.9326 10.4639 39.5556H37.5361C37.9143 31.9326 33.7012 28.4444 24 28.4444ZM24 4C28.91 4 32.8904 7.97969 32.8904 12.8889C32.8904 17.7981 28.91 21.7778 24 21.7778C19.09 21.7778 15.1097 17.7981 15.1097 12.8889C15.1097 7.97969 19.09 4 24 4ZM24 8.44444C21.545 8.44444 19.5548 10.4343 19.5548 12.8889C19.5548 15.3435 21.545 17.3333 24 17.3333C26.455 17.3333 28.4452 15.3435 28.4452 12.8889C28.4452 10.4343 26.455 8.44444 24 8.44444Z" fill="#333333"/>
</svg>
