<svg width="48" height="48" viewBox="0 0 48 48" fill="none" xmlns="http://www.w3.org/2000/svg">
<path fill-rule="evenodd" clip-rule="evenodd" d="M26 5C29.3137 5 32 7.68629 32 11H38C41.3137 11 44 13.6863 44 17V37C44 40.3137 41.3137 43 38 43H10C6.68629 43 4 40.3137 4 37V17C4 13.6863 6.68629 11 10 11H16C16 7.68629 18.6863 5 22 5H26ZM22 28C21.4872 28 21.0645 27.614 21.0067 27.1166L20.999 26.979L7.999 21.923L8 37C8 38.1046 8.89543 39 10 39H38C39.1046 39 40 38.1046 40 37V21.923L26.999 26.979L27 27C27 27.5523 26.5523 28 26 28H22ZM38 15H10C8.89543 15 8 15.8954 8 17V17.6319L21.0442 22.7051C21.17 22.2968 21.5504 22 22 22H26C26.4496 22 26.83 22.2968 26.9558 22.7051L40 17.6319V17C40 15.8954 39.1046 15 38 15ZM26 9H22C20.8954 9 20 9.89543 20 11H28C28 9.89543 27.1046 9 26 9Z" fill="#333333"/>
</svg>
